<svg width="187" height="35" viewBox="0 0 187 35" fill="none" xmlns="http://www.w3.org/2000/svg">
<path d="M12.3783 2.60253V2.61219L12.3705 2.59866L12.3783 2.60253Z" fill="#2F80ED"/>
<path d="M12.4537 2.45174L12.4615 2.44594C12.4615 2.44787 12.4595 2.44787 12.4595 2.44981C12.4576 2.45174 12.4557 2.45174 12.4537 2.45174Z" fill="#2F80ED"/>
<path d="M13.6146 19.8023C13.6127 19.8023 13.6127 19.8004 13.6108 19.8004C13.6088 19.7965 13.6088 19.7946 13.6088 19.7907C13.6108 19.7946 13.6127 19.7984 13.6146 19.8023Z" fill="#2F80ED"/>
<path d="M29.3273 11.0565C29.186 11.1899 29.01 11.1357 28.8474 11.1357C27.4079 11.1396 25.9684 11.1203 24.5289 11.1493C24.1187 11.1589 23.8866 11.0197 23.9562 10.6408C24.0433 10.1633 23.813 9.69741 23.9717 9.23151C23.9814 9.66648 24.0143 10.1034 23.9891 10.5364C23.9698 10.9018 24.1149 10.983 24.4515 10.9791C25.7943 10.9617 27.1371 10.9714 28.4798 10.9695C28.7662 10.9695 29.0506 10.9753 29.3273 11.0565Z" fill="#2F80ED"/>
<path d="M14.7949 21.1285C14.6943 21.1285 14.5956 21.1266 14.4969 21.1266C14.464 21.0937 14.4292 21.0589 14.3963 21.026C14.4098 20.7766 14.1835 20.7013 14.0442 20.5814C13.7946 20.3687 13.6359 20.129 13.6108 19.8004C13.6088 19.7965 13.6088 19.7946 13.6088 19.7907C13.9261 20.3049 14.3711 20.707 14.7949 21.1285Z" fill="#2F80ED"/>
<path d="M13.6146 19.8023C13.6127 19.8023 13.6127 19.8004 13.6108 19.8004C13.2954 19.6747 13.3534 19.3673 13.2818 19.1237C13.4618 19.3113 13.4869 19.5742 13.6088 19.7907C13.6108 19.7946 13.6127 19.7984 13.6146 19.8023Z" fill="#2F80ED"/>
<path d="M12.5795 2.28162C12.5718 2.36088 12.5505 2.42854 12.4595 2.44981C12.4576 2.45174 12.4557 2.45174 12.4537 2.45174V2.44981C12.4634 2.36861 12.4963 2.30868 12.5795 2.28162Z" fill="#2F80ED"/>
<path d="M12.4615 2.44594C12.4615 2.44787 12.4595 2.44787 12.4595 2.44981C12.4344 2.48847 12.4112 2.52907 12.386 2.56773C12.3667 2.502 12.3976 2.46914 12.4537 2.44981C12.4557 2.44787 12.4595 2.44594 12.4615 2.44594Z" fill="#2F80ED"/>
<path d="M12.3783 2.60253V2.61219L12.3705 2.59866L12.3783 2.60253Z" fill="#2F80ED"/>
<path d="M33.4349 21.6717C30.3798 25.0684 25.8949 24.5967 23.3796 21.5267C22.4683 20.4151 21.9305 19.1102 21.9595 17.6564C22.0117 15.0543 19.9221 12.8292 17.1186 13.0477C17.018 13.0554 16.9174 13.0477 16.8167 13.0477C15.5359 13.3202 14.4872 13.9408 13.7365 15.0447C13.04 16.0693 12.8523 17.1693 13.098 18.3756C13.1483 18.6308 13.1793 18.884 13.2818 19.1237C13.3534 19.3673 13.2954 19.6747 13.6108 19.8004C13.6359 20.129 13.7946 20.3687 14.0442 20.5814C14.1835 20.7013 14.4098 20.7766 14.3963 21.026C14.4292 21.0589 14.464 21.0937 14.4969 21.1266C14.5956 21.1266 14.6943 21.1285 14.7949 21.1285L14.7968 21.1362C15.2708 21.2967 15.681 21.5905 16.1628 21.751C16.9503 22.01 17.7706 21.8631 18.56 22.0332C21.292 22.6209 23.1339 24.2236 23.8014 26.9359C24.4535 29.5901 23.6486 31.8965 21.4893 33.5745C19.3146 35.2641 16.9116 35.4284 14.435 34.1912C14.3769 34.1622 14.3305 34.11 14.2783 34.0694C12.1442 32.8457 11.0781 30.9685 10.9697 28.5501C10.9117 27.2084 10.9426 25.861 10.9601 24.5174C10.9659 24.1269 10.8498 24.0032 10.4512 24.0032C8.90528 24.0032 7.35356 24.0998 5.81344 23.9548C2.8377 23.6726 0.438524 21.3199 0.05543 18.3582C-0.451492 14.4338 2.5823 10.9811 6.5448 10.9733C7.8392 10.9714 9.13553 10.9559 10.428 10.983C10.842 10.9907 10.9775 10.8902 10.9697 10.461C10.9407 9.16771 10.9581 7.87246 10.9601 6.57914C10.9601 5.37862 11.2658 4.25929 11.8597 3.21342C11.9952 2.97177 12.1848 2.79005 12.3705 2.59866L12.3783 2.61219V2.60253L12.386 2.56773C12.4112 2.52907 12.4344 2.48847 12.4595 2.44981C12.5505 2.42854 12.5718 2.36088 12.5795 2.28162L12.593 2.26035C12.6201 2.22942 12.6472 2.19849 12.6762 2.16949L12.684 2.15982C12.7149 2.12889 12.7478 2.09603 12.7788 2.06509L12.7827 2.06123C14.166 0.342606 17.0625 -0.453878 19.3185 0.263343C22.1955 1.17969 23.993 3.63873 23.991 6.66227C23.991 7.51868 23.9794 8.3751 23.9717 9.23151C23.813 9.69741 24.0433 10.1633 23.9562 10.6408C23.8866 11.0197 24.1187 11.1589 24.5289 11.1493C25.9684 11.1203 27.4079 11.1396 28.8474 11.1357C29.01 11.1357 29.186 11.1899 29.3273 11.0565C30.1205 11.1415 30.8171 11.4257 31.5117 11.8433C32.1405 12.2241 32.7654 12.5721 33.2685 13.1192C35.4761 15.5222 35.6174 19.2475 33.4349 21.6717Z" fill="#2F80ED"/>
<path d="M178.314 30.1796C173.099 30.1796 168.906 25.9748 168.906 20.7461C168.906 15.5174 173.099 11.3125 178.314 11.3125C182.324 11.3125 185.715 13.8354 186.992 17.3456H183.163C182.142 15.8099 180.428 14.7861 178.35 14.7861C174.995 14.7861 172.48 17.4187 172.48 20.7461C172.48 24.0734 175.032 26.706 178.35 26.706C180.392 26.706 182.069 25.7188 183.09 24.2197H186.992C185.679 27.7298 182.288 30.1796 178.314 30.1796Z" fill="white"/>
<path d="M164.758 9.08302C163.518 9.08302 162.57 8.13235 162.57 6.88917C162.57 5.64598 163.518 4.69531 164.758 4.69531C165.961 4.69531 166.909 5.64598 166.909 6.88917C166.909 8.13235 165.961 9.08302 164.758 9.08302ZM162.971 29.8881V11.6059H166.545V29.8881H162.971Z" fill="white"/>
<path d="M160.028 29.8871H156.454V20.2707C156.454 16.5412 154.85 14.7861 152.006 14.7861C149.162 14.7861 147.558 16.5412 147.558 20.2707V29.8871H143.984V20.2707C143.984 14.1279 147.339 11.3125 152.006 11.3125C156.673 11.3125 160.028 14.1279 160.028 20.2707V29.8871Z" fill="white"/>
<path d="M139.297 9.08302C138.057 9.08302 137.109 8.13235 137.109 6.88917C137.109 5.64598 138.057 4.69531 139.297 4.69531C140.5 4.69531 141.448 5.64598 141.448 6.88917C141.448 8.13235 140.5 9.08302 139.297 9.08302ZM137.51 29.8881V11.6059H141.084V29.8881H137.51Z" fill="white"/>
<path d="M134.206 29.8879H130.633V4.29297H134.206V29.8879Z" fill="white"/>
<path d="M116.658 30.18C109.365 30.18 103.531 24.4394 103.531 17.09C103.531 9.74058 109.365 4 116.658 4C122.163 4 126.794 7.32734 128.617 12.0807H124.752C123.148 9.30181 120.158 7.51016 116.658 7.51016C111.298 7.51016 107.105 11.715 107.105 17.09C107.105 22.4649 111.298 26.6698 116.658 26.6698C120.122 26.6698 123.002 24.9147 124.679 22.2821H128.544C126.685 26.9623 122.127 30.18 116.658 30.18Z" fill="white"/>
<path d="M83.0547 20.7826C83.0547 15.6271 87.0655 11.3125 92.3161 11.3125C97.0198 11.3125 101.541 14.7495 101.723 20.417C101.723 21.0386 101.687 21.587 101.614 22.0624H86.8832C87.1749 24.7681 89.3627 26.706 92.3161 26.706C94.3216 26.706 95.7436 25.9016 96.6916 24.8778L100.958 24.9144C99.3898 28.0589 96.1082 30.1796 92.4255 30.1796C87.1749 30.1796 83.0547 25.9748 83.0547 20.7826ZM86.8832 19.1372H97.8949C97.2385 16.6509 95.0508 14.7861 92.4255 14.7861C89.5814 14.7861 87.5396 16.6509 86.8832 19.1372Z" fill="white"/>
<path d="M82.0063 15.079H78.0684V21.2217C78.0684 24.6953 79.4175 26.3042 82.0063 26.5236V29.9972C77.6308 29.8143 74.5316 27.1452 74.4951 21.2583V15.079H71.7969V11.6054H74.4951V5.06036H78.0684V11.6054H82.0063V15.079Z" fill="white"/>
<path d="M68.6877 9.08302C67.448 9.08302 66.5 8.13235 66.5 6.88917C66.5 5.64598 67.448 4.69531 68.6877 4.69531C69.891 4.69531 70.839 5.64598 70.839 6.88917C70.839 8.13235 69.891 9.08302 68.6877 9.08302ZM66.9011 29.8881V11.6059H70.4744V29.8881H66.9011Z" fill="white"/>
<path d="M63.5967 29.8879H60.0234V4.29297H63.5967V29.8879Z" fill="white"/>
<path d="M58.0225 7.76657H46.5733V14.7503H56.6369V18.2239H46.5733V26.4143H58.0225V29.8879H43V4.29297H58.0225V7.76657Z" fill="white"/>
</svg>
