<svg width="152" height="29" viewBox="0 0 152 29" fill="none" xmlns="http://www.w3.org/2000/svg">
<path d="M10.022 2.10715V2.11498L10.0157 2.10402L10.022 2.10715Z" fill="white"/>
<path d="M10.0831 1.98506L10.0894 1.98037C10.0894 1.98193 10.0878 1.98193 10.0878 1.9835C10.0862 1.98506 10.0847 1.98506 10.0831 1.98506Z" fill="white"/>
<path d="M11.023 16.033C11.0214 16.033 11.0214 16.0315 11.0199 16.0315C11.0183 16.0284 11.0183 16.0268 11.0183 16.0237C11.0199 16.0268 11.0214 16.0299 11.023 16.033Z" fill="white"/>
<path d="M23.7447 8.95192C23.6303 9.05993 23.4878 9.0161 23.3562 9.0161C22.1907 9.01923 21.0252 9.00358 19.8597 9.02705C19.5276 9.03488 19.3396 8.92218 19.396 8.6154C19.4665 8.22878 19.2801 7.85156 19.4086 7.47434C19.4164 7.82652 19.443 8.18026 19.4227 8.53088C19.407 8.8267 19.5245 8.89244 19.7971 8.88931C20.8842 8.87523 21.9714 8.88305 23.0585 8.88149C23.2904 8.88149 23.5207 8.88618 23.7447 8.95192Z" fill="white"/>
<path d="M11.9786 17.1068C11.8971 17.1068 11.8172 17.1052 11.7373 17.1052C11.7107 17.0786 11.6825 17.0504 11.6559 17.0238C11.6668 16.8219 11.4836 16.7609 11.3708 16.6638C11.1687 16.4917 11.0402 16.2976 11.0199 16.0315C11.0183 16.0284 11.0183 16.0268 11.0183 16.0237C11.2752 16.44 11.6355 16.7656 11.9786 17.1068Z" fill="white"/>
<path d="M11.023 16.033C11.0214 16.033 11.0214 16.0315 11.0199 16.0315C10.7645 15.9297 10.8115 15.6809 10.7536 15.4836C10.8993 15.6355 10.9196 15.8483 11.0183 16.0237C11.0199 16.0268 11.0214 16.0299 11.023 16.033Z" fill="white"/>
<path d="M10.1849 1.84732C10.1787 1.9115 10.1614 1.96628 10.0878 1.9835C10.0862 1.98506 10.0847 1.98506 10.0831 1.98506V1.9835C10.0909 1.91776 10.1176 1.86924 10.1849 1.84732Z" fill="white"/>
<path d="M10.0894 1.98037C10.0894 1.98193 10.0878 1.98193 10.0878 1.9835C10.0674 2.0148 10.0486 2.04767 10.0283 2.07898C10.0126 2.02576 10.0377 1.99915 10.0831 1.9835C10.0847 1.98193 10.0878 1.98037 10.0894 1.98037Z" fill="white"/>
<path d="M10.022 2.10715V2.11498L10.0157 2.10402L10.022 2.10715Z" fill="white"/>
<path d="M27.0704 17.5466C24.5969 20.2967 20.9657 19.9148 18.9292 17.4292C18.1914 16.5292 17.7559 15.4727 17.7794 14.2956C17.8217 12.1888 16.1298 10.3872 13.86 10.5641C13.7785 10.5704 13.697 10.5641 13.6156 10.5641C12.5786 10.7848 11.7295 11.2873 11.1217 12.181C10.5578 13.0106 10.4058 13.9012 10.6047 14.8779C10.6455 15.0845 10.6705 15.2896 10.7536 15.4836C10.8115 15.6809 10.7645 15.9297 11.0199 16.0315C11.0402 16.2976 11.1687 16.4917 11.3708 16.6638C11.4836 16.7609 11.6668 16.8219 11.6559 17.0238C11.6825 17.0504 11.7107 17.0786 11.7373 17.1052C11.8172 17.1052 11.8971 17.1068 11.9786 17.1068L11.9801 17.1131C12.3639 17.243 12.696 17.4809 13.0861 17.6108C13.7237 17.8205 14.3879 17.7016 15.027 17.8393C17.2389 18.3152 18.7303 19.6127 19.2707 21.8088C19.7986 23.9578 19.147 25.8252 17.3987 27.1838C15.638 28.5518 13.6923 28.6848 11.6872 27.6831C11.6402 27.6596 11.6026 27.6174 11.5603 27.5845C9.83246 26.5937 8.96931 25.0738 8.88158 23.1157C8.83459 22.0295 8.85965 20.9385 8.87375 19.8507C8.87845 19.5345 8.78446 19.4343 8.46176 19.4343C7.21011 19.4343 5.95377 19.5126 4.70682 19.3952C2.29752 19.1666 0.355048 17.2618 0.0448786 14.8638C-0.365548 11.6864 2.09074 8.89088 5.29897 8.88462C6.34696 8.88305 7.39653 8.87053 8.44296 8.89244C8.77819 8.8987 8.88785 8.81731 8.88158 8.46983C8.85809 7.42269 8.87218 6.37398 8.87375 5.32684C8.87375 4.35483 9.12126 3.44856 9.60218 2.60176C9.71183 2.40611 9.86535 2.25898 10.0157 2.10402L10.022 2.11498V2.10715L10.0283 2.07898C10.0486 2.04767 10.0674 2.0148 10.0878 1.9835C10.1614 1.96628 10.1787 1.9115 10.1849 1.84732L10.1959 1.83011C10.2178 1.80506 10.2397 1.78002 10.2632 1.75654L10.2695 1.74871C10.2946 1.72367 10.3212 1.69706 10.3463 1.67202L10.3494 1.66889C11.4695 0.277393 13.8145 -0.367485 15.6411 0.213217C17.9705 0.955139 19.4258 2.94612 19.4242 5.39415C19.4242 6.08754 19.4148 6.78094 19.4086 7.47434C19.2801 7.85156 19.4665 8.22878 19.396 8.6154C19.3396 8.92218 19.5276 9.03488 19.8597 9.02705C21.0252 9.00358 22.1907 9.01923 23.3562 9.0161C23.4878 9.0161 23.6303 9.05993 23.7447 8.95192C24.3869 9.02079 24.9509 9.25088 25.5133 9.58897C26.0224 9.89732 26.5284 10.1791 26.9357 10.622C28.723 12.5676 28.8374 15.5838 27.0704 17.5466Z" fill="white"/>
<path d="M144.372 24.4168C140.15 24.4168 136.755 21.0123 136.755 16.7789C136.755 12.5454 140.15 9.14093 144.372 9.14093C147.619 9.14093 150.365 11.1836 151.398 14.0257H148.298C147.472 12.7823 146.084 11.9534 144.401 11.9534C141.685 11.9534 139.648 14.0849 139.648 16.7789C139.648 19.4729 141.715 21.6044 144.401 21.6044C146.055 21.6044 147.413 20.8051 148.239 19.5913H151.398C150.335 22.4333 147.59 24.4168 144.372 24.4168Z" fill="white"/>
<path d="M133.394 7.3486C132.391 7.3486 131.623 6.57889 131.623 5.57234C131.623 4.56578 132.391 3.79607 133.394 3.79607C134.369 3.79607 135.136 4.56578 135.136 5.57234C135.136 6.57889 134.369 7.3486 133.394 7.3486ZM131.948 24.1935V9.39131H134.841V24.1935H131.948Z" fill="white"/>
<path d="M129.562 24.18H126.669V16.394C126.669 13.3744 125.37 11.9534 123.067 11.9534C120.765 11.9534 119.466 13.3744 119.466 16.394V24.18H116.573V16.394C116.573 11.4205 119.289 9.14093 123.067 9.14093C126.846 9.14093 129.562 11.4205 129.562 16.394V24.18Z" fill="white"/>
<path d="M112.784 7.3486C111.781 7.3486 111.013 6.57889 111.013 5.57234C111.013 4.56578 111.781 3.79607 112.784 3.79607C113.759 3.79607 114.526 4.56578 114.526 5.57234C114.526 6.57889 113.759 7.3486 112.784 7.3486ZM111.338 24.1935V9.39131H114.231V24.1935H111.338Z" fill="white"/>
<path d="M108.661 24.2195H105.768V3.49644H108.661V24.2195Z" fill="white"/>
<path d="M94.4471 24.4583C88.5428 24.4583 83.8193 19.8105 83.8193 13.86C83.8193 7.90948 88.5428 3.26159 94.4471 3.26159C98.9048 3.26159 102.654 5.95559 104.13 9.80416H101.001C99.7019 7.55422 97.2812 6.10361 94.4471 6.10361C90.1074 6.10361 86.7124 9.50812 86.7124 13.86C86.7124 18.2118 90.1074 21.6163 94.4471 21.6163C97.2516 21.6163 99.5838 20.1953 100.942 18.0638H104.071C102.566 21.8532 98.8753 24.4583 94.4471 24.4583Z" fill="white"/>
<path d="M67.2461 16.8085C67.2461 12.6343 70.4935 9.14093 74.7446 9.14093C78.5528 9.14093 82.2135 11.9237 82.3611 16.5124C82.3611 17.0157 82.3316 17.4598 82.2726 17.8446H70.3459C70.582 20.0354 72.3533 21.6044 74.7446 21.6044C76.3682 21.6044 77.5196 20.9531 78.2871 20.1242L81.7412 20.1538C80.4717 22.6998 77.8148 24.4168 74.8331 24.4168C70.582 24.4168 67.2461 21.0123 67.2461 16.8085ZM70.3459 15.4763H79.2614C78.73 13.4632 76.9587 11.9534 74.8331 11.9534C72.5304 11.9534 70.8772 13.4632 70.3459 15.4763Z" fill="white"/>
<path d="M66.3896 12.2316H63.2012V17.2052C63.2012 20.0176 64.2935 21.3202 66.3896 21.4978V24.3102C62.847 24.1622 60.3377 22.0011 60.3081 17.2348V12.2316H58.1235V9.4192H60.3081V4.12H63.2012V9.4192H66.3896V12.2316Z" fill="white"/>
<path d="M55.6165 7.3486C54.6128 7.3486 53.8452 6.57889 53.8452 5.57234C53.8452 4.56578 54.6128 3.79607 55.6165 3.79607C56.5907 3.79607 57.3583 4.56578 57.3583 5.57234C57.3583 6.57889 56.5907 7.3486 55.6165 7.3486ZM54.17 24.1935V9.39131H57.0631V24.1935H54.17Z" fill="white"/>
<path d="M51.4869 24.2195H48.5938V3.49644H51.4869V24.2195Z" fill="white"/>
<path d="M46.9773 6.30886H37.7076V11.9633H45.8555V14.7757H37.7076V21.4071H46.9773V24.2195H34.8145V3.49644H46.9773V6.30886Z" fill="white"/>
</svg>
