<svg width="50" height="50" viewBox="0 0 50 50" fill="none" xmlns="http://www.w3.org/2000/svg">
<path d="M24.7528 1.39235L7.16163 8.73876C6.98873 8.81198 6.84121 8.93448 6.73745 9.09097C6.63369 9.24746 6.57828 9.43103 6.57813 9.61879V25.2203C6.57688 29.0157 7.56305 32.746 9.43973 36.0449C11.3164 39.3437 14.019 42.0976 17.2821 44.0359L25.0972 48.6848L32.8071 44.0551C36.0427 42.1085 38.7199 39.3582 40.5787 36.0714C42.4375 32.7846 43.4147 29.0729 43.4154 25.2969V8.73876C43.416 8.54331 43.3567 8.35236 43.2456 8.1916C43.1344 8.03084 42.9767 7.90799 42.7936 7.83959L25.4511 1.37322C25.2243 1.29134 24.9749 1.29817 24.7528 1.39235Z" stroke="#4BB1FA" stroke-width="1.85033"/>
<path d="M18.8516 24.7725L23.0165 28.9357L31.3428 20.6094" stroke="#4BB1FA" stroke-width="1.97368" stroke-linecap="round" stroke-linejoin="round"/>
</svg>
