<svg width="38" height="50" viewBox="0 0 38 50" fill="none" xmlns="http://www.w3.org/2000/svg">
<path d="M30.3643 12.1244C28.5473 10.8113 26.712 10.3685 25.1337 10.3757C23.8944 10.3766 22.8127 10.6263 21.9461 10.8523C21.5132 10.9652 21.1332 11.071 20.8262 11.1439C20.5209 11.2177 20.2876 11.2478 20.1892 11.2469C20.0898 11.2478 19.8565 11.2177 19.5504 11.1439C18.619 10.9324 17.0964 10.3794 15.2446 10.3757C13.6663 10.3685 11.8302 10.8104 10.0141 12.1244C8.65713 13.0958 7.69023 14.4026 7.08525 15.846C6.47832 17.2912 6.2168 18.8741 6.2168 20.4778C6.22686 24.184 7.58184 28.0341 9.74795 30.8298C11.3398 32.8728 13.4577 33.9354 15.3859 34.4721C17.3196 35.0108 19.1075 35.0535 20.1892 35.0544C21.2708 35.0535 23.0579 35.0108 24.9906 34.4721C26.9206 33.9354 29.0384 32.8729 30.6304 30.8298C32.7955 28.035 34.1507 24.1839 34.1615 20.4778C34.1605 18.8741 33.899 17.2912 33.2922 15.845C32.6871 14.4026 31.7203 13.0957 30.3643 12.1244ZM28.6566 29.2925C27.4747 30.8079 25.9037 31.6171 24.3182 32.0618C22.738 32.5057 21.1852 32.5539 20.1892 32.553C19.1913 32.5539 17.6395 32.5057 16.0594 32.0618C14.4746 31.6171 12.9027 30.8079 11.7199 29.2925C9.92383 27.0053 8.70732 23.5543 8.71729 20.4778C8.71729 19.1456 8.93779 17.8908 9.39072 16.8155C9.84541 15.7394 10.518 14.8437 11.4729 14.1565C12.8863 13.1485 14.0983 12.8843 15.2446 12.8771C16.1422 12.8771 16.997 13.0611 17.8008 13.2726C18.2035 13.3765 18.5908 13.4876 18.9781 13.5787C19.3673 13.668 19.7518 13.7455 20.1892 13.7473C20.6257 13.7455 21.0111 13.6681 21.3993 13.5787C22.5484 13.2999 23.7822 12.8734 25.1337 12.877C26.2791 12.8842 27.491 13.1504 28.9054 14.1564C29.8594 14.8435 30.5311 15.7393 30.9866 16.8154C31.4395 17.8889 31.661 19.1455 31.6591 20.4777C31.6702 23.5543 30.4527 27.0053 28.6566 29.2925Z" fill="#4BB1FA"/>
<path d="M15.8149 36.2253H14.7734L15.8149 39.0421H24.668L25.7104 36.2253H24.668H15.8149Z" fill="#4BB1FA"/>
<path d="M17.3082 50H23.2669L23.9687 48.1046H16.6074L17.3082 50Z" fill="#4BB1FA"/>
<path d="M16.1925 40.1793L15.2402 41.467L16.1925 42.7556H24.2918L25.2449 41.467L24.2918 40.1793H16.1925Z" fill="#4BB1FA"/>
<path d="M16.1925 44.0149L15.2402 45.3016L16.1925 46.5883H24.2918L25.2449 45.3016L24.2918 44.0149H16.1925Z" fill="#4BB1FA"/>
<path d="M37.8228 4.83965L34.2843 3.90205C34.1923 3.88203 34.1166 3.80723 34.0966 3.71436L33.1635 0.176855C33.139 0.0738281 33.0478 0 32.9412 0C32.8346 0 32.7434 0.0738281 32.7188 0.176855L31.7857 3.71436C31.7647 3.80732 31.69 3.88203 31.5971 3.90205L28.0596 4.83965C27.9557 4.86064 27.8828 4.95176 27.8828 5.0584C27.8828 5.16504 27.9557 5.25703 28.0596 5.27715L31.5971 6.21484C31.69 6.23398 31.7647 6.30957 31.7857 6.40254L32.7188 9.94004C32.7434 10.0439 32.8346 10.1168 32.9412 10.1168C33.0478 10.1168 33.139 10.0439 33.1635 9.94004L34.0966 6.40254C34.1167 6.30957 34.1923 6.23398 34.2843 6.21484L37.8228 5.27715C37.9258 5.25703 37.9996 5.16504 37.9996 5.0584C37.9996 4.95186 37.9258 4.86064 37.8228 4.83965Z" fill="#4BB1FA"/>
<path d="M21.2723 20.3641L18.0409 19.5074C17.9562 19.4893 17.8879 19.4218 17.8696 19.3361L17.0177 16.1057C16.9948 16.0118 16.9119 15.9443 16.8145 15.9443C16.7169 15.9443 16.634 16.0118 16.6112 16.1057L15.7602 19.3361C15.74 19.4218 15.6727 19.4893 15.5879 19.5074L12.3565 20.3641C12.2618 20.3822 12.1953 20.467 12.1953 20.5636C12.1953 20.661 12.2619 20.745 12.3565 20.7632L15.5879 21.6198C15.6727 21.638 15.74 21.7063 15.7602 21.7911L16.6112 25.0225C16.634 25.1172 16.7169 25.1828 16.8145 25.1828C16.9119 25.1828 16.9948 25.1172 17.0177 25.0225L17.8696 21.7911C17.888 21.7063 17.9563 21.638 18.0409 21.6198L21.2723 20.7632C21.3661 20.745 21.4336 20.661 21.4336 20.5636C21.4336 20.467 21.3661 20.3822 21.2723 20.3641Z" fill="#4BB1FA"/>
<path d="M7.8333 8.90488C7.8333 8.82285 7.77764 8.75088 7.69658 8.73545L4.95732 8.00908C4.88633 7.99365 4.82705 7.93525 4.81162 7.86426L4.08896 5.125C4.06982 5.04482 3.99971 4.98828 3.9167 4.98828C3.83467 4.98828 3.76357 5.04482 3.74443 5.125L3.02275 7.86426C3.00635 7.93525 2.94805 7.99355 2.87686 8.00908L0.137695 8.73545C0.0566406 8.75088 0 8.82285 0 8.90488C0 8.98779 0.056543 9.05801 0.137695 9.07432L2.87686 9.79971C2.94795 9.81514 3.00635 9.87354 3.02275 9.94541L3.74443 12.6847C3.76357 12.7648 3.83467 12.8214 3.9167 12.8214C3.99971 12.8214 4.06982 12.7648 4.08896 12.6847L4.81162 9.94541C4.82705 9.87344 4.88633 9.81514 4.95732 9.79971L7.69658 9.07432C7.77764 9.05801 7.8333 8.98779 7.8333 8.90488Z" fill="#4BB1FA"/>
</svg>
