<svg width="33" height="50" viewBox="0 0 33 50" fill="none" xmlns="http://www.w3.org/2000/svg">
<path d="M26.5355 20.8204C32.6587 14.455 32.7312 9.03408 32.7312 8.80136C32.7312 4.72939 31.5564 2.02548 29.2396 0.765131C24.954 -1.56631 18.2438 2.06972 16.3655 3.18798C14.487 2.06972 7.77705 -1.56612 3.4915 0.765131C1.17471 2.02548 0 4.72929 0 8.80136C0 9.03408 0.0724602 14.455 6.1957 20.8204C5.36152 22.7705 2.7418 29.1517 2.72773 32.4139C2.70664 32.7943 2.52148 36.5175 3.07764 40.4108C3.8958 46.1377 5.87607 49.2651 8.96348 49.7061C9.00635 49.7121 9.04922 49.7152 9.09199 49.7152C9.30947 49.7152 9.52129 49.6371 9.6877 49.4928C9.88682 49.3201 10.0013 49.0694 10.0013 48.806C10.0013 48.7613 10.0249 44.299 10.9063 39.8922C11.2863 37.9914 11.8465 35.9089 12.7558 34.2976V46.3631C12.7558 48.3684 14.3872 49.9999 16.3926 49.9999C18.3979 49.9999 20.0294 48.3685 20.0294 46.3631V34.2848C22.0751 38.2394 22.7425 45.4228 22.7436 48.8062C22.7437 49.0697 22.8515 49.3203 23.0506 49.4928C23.217 49.637 23.4254 49.7152 23.6427 49.7152C23.6855 49.7152 23.7267 49.7121 23.7695 49.7061C26.8569 49.265 28.8364 46.1377 29.6546 40.4108C30.2107 36.5175 30.0252 32.7943 30.0041 32.4139C29.9897 29.1517 27.3696 22.7705 26.5355 20.8204ZM16.3655 48.1459C15.6943 48.1459 15.1082 47.9185 14.7932 47.2367H17.9378C17.623 47.9185 17.0368 48.1459 16.3655 48.1459ZM18.2107 45.4183H14.5739V45.1068L18.2107 43.2885V45.4183ZM18.2107 41.2552L14.5739 43.0735V40.5608L18.2107 38.7425V41.2552ZM18.2107 36.7092L14.5739 38.5275V36.0148L18.2107 34.1965V36.7092ZM18.2107 32.1632L14.5739 33.9815V32.1123C15.0285 31.7432 15.7156 31.5311 16.3923 31.5311C17.064 31.5311 17.5288 31.7392 18.2106 32.1099L18.2107 32.1632ZM24.5206 47.5663C24.459 45.8851 24.2604 42.7304 23.6215 39.5357C22.3179 33.0178 19.8766 29.7128 16.3655 29.7128C12.8545 29.7128 10.4132 33.0178 9.10957 39.5357C8.47061 42.7304 8.27207 45.8851 8.21045 47.5663C4.62773 45.5898 4.32578 36.2354 4.54434 32.4937C4.54531 32.476 4.5459 32.4582 4.5459 32.4404C4.5459 29.0385 8.06885 21.0702 8.1044 20.9902C8.25713 20.6464 8.18242 20.244 7.9165 19.978C4.7874 16.8489 3.2959 13.9734 2.5958 12.1122C1.83955 10.1017 1.81846 8.80976 1.81836 8.80136C1.81836 5.44746 2.67314 3.28144 4.35898 2.36328C7.65225 0.569624 13.7864 3.67216 15.872 5.01894C15.888 5.02929 15.9054 5.03525 15.9218 5.04443C15.9552 5.06318 15.9883 5.08212 16.0235 5.09648C16.0485 5.10664 16.0741 5.11279 16.0997 5.1207C16.1305 5.12998 16.1605 5.14033 16.192 5.14648C16.2189 5.15166 16.2459 5.15312 16.273 5.15595C16.3046 5.15917 16.3357 5.16318 16.3676 5.16318C16.3931 5.16308 16.418 5.15957 16.4433 5.15732C16.4766 5.15458 16.5097 5.15234 16.5427 5.1457C16.568 5.14072 16.5922 5.13203 16.6169 5.12499C16.6483 5.11591 16.6796 5.108 16.7103 5.09531C16.7399 5.0832 16.7674 5.06679 16.7958 5.05146C16.8168 5.04003 16.839 5.03203 16.8594 5.01884C18.942 3.67109 25.0698 0.566596 28.3705 2.36259C30.0573 3.28027 30.9126 5.44658 30.9126 8.80146C30.9126 8.85224 30.8429 13.9498 24.8145 19.9781C24.5485 20.2441 24.4738 20.6465 24.6266 20.9903C24.6621 21.0703 28.185 29.0386 28.185 32.4405C28.185 32.4583 28.1855 32.4761 28.1865 32.4938C28.4052 36.2354 28.1033 45.5898 24.5206 47.5663Z" fill="#4BB1FA"/>
</svg>
