<svg width="42" height="50" viewBox="0 0 42 50" fill="none" xmlns="http://www.w3.org/2000/svg">
<path d="M24.892 0.241367C25.2595 -0.10043 25.8329 -0.0760161 26.1722 0.294264C26.5114 0.664544 26.4872 1.24234 26.1197 1.58414C24.5083 3.08561 23.3129 4.90038 22.6062 7.0773C21.952 9.07926 21.7016 11.3986 21.9035 14.0679C22.2387 14.0394 22.5739 13.9987 22.9091 13.9417C23.5149 13.84 24.1247 13.6813 24.7385 13.4697C24.7708 13.4575 24.8031 13.4494 24.8354 13.4412C26.8668 12.9814 28.6922 12.8553 30.3399 13.0181C32.0199 13.1808 33.506 13.6447 34.8306 14.3608C39.1195 16.6842 41.1993 20.1022 41.8091 23.923C42.5401 28.5251 41.0822 33.6724 38.7843 38.1035C37.702 40.1909 35.921 43.0148 33.8614 45.3219C32.2824 47.092 30.5176 48.5771 28.7285 49.2526C27.2868 49.7979 25.8935 49.9484 24.5447 49.8141C23.3614 49.6961 22.2185 49.3543 21.116 48.866C19.6662 49.5985 18.1518 50.0339 16.5485 50.0013C14.7837 49.9647 12.9462 49.3625 11.0199 47.9709V47.9668C10.9956 47.9505 10.9714 47.9302 10.9512 47.9098C9.03294 46.2212 7.46198 44.4512 6.11717 42.6567C4.78044 40.8745 3.66179 39.0597 2.65217 37.2694C0.592554 33.6357 -0.203023 29.7132 0.0433233 26.104C0.249285 23.0644 1.19429 20.2365 2.74505 17.9741C4.32409 15.6751 6.52909 13.9621 9.22679 13.193C11.4883 12.5461 14.081 12.5664 16.9241 13.4657V13.4697C17.6187 13.6813 18.3174 13.8481 19.0079 13.9539C19.3674 14.0109 19.7227 14.0516 20.0822 14.076C19.9651 12.3874 20.0135 10.8249 20.2195 9.3763C17.8893 10.7069 15.7327 11.2033 13.7377 10.9591C8.85525 10.3569 6.48871 6.2635 4.57448 2.25146L7.1914 1.97477C14.0568 0.916823 18.1558 3.29312 20.5183 7.81786C20.6233 7.37434 20.7445 6.93896 20.8818 6.51985C21.6895 4.02555 23.0545 1.95442 24.892 0.241367ZM6.72698 33.3346C6.56948 32.8586 6.8239 32.3377 7.30044 32.179C7.77294 32.0203 8.28986 32.2767 8.44736 32.7568C8.96025 34.299 9.72352 35.6825 10.6766 36.9479C11.6458 38.2256 12.8129 39.3812 14.1133 40.4513C14.501 40.7687 14.5616 41.3424 14.2466 41.7371C13.9316 42.1278 13.3622 42.1888 12.9704 41.8714C11.561 40.7118 10.2929 39.4585 9.23486 38.0588C8.16467 36.6427 7.30448 35.0843 6.72698 33.3346ZM21.1604 15.9355C21.1079 15.9396 21.0554 15.9396 21.007 15.9355C20.2477 15.9396 19.4885 15.8786 18.7293 15.7565C17.9458 15.6344 17.1664 15.4513 16.387 15.2113L16.3789 15.2072V15.2113C13.8872 14.4219 11.6458 14.3975 9.7114 14.9508C7.43775 15.6019 5.57602 17.0545 4.23121 19.0117C2.86217 21.0015 2.03025 23.512 1.84852 26.2261C1.6264 29.5016 2.35332 33.062 4.22313 36.3701C5.1964 38.0913 6.27063 39.8369 7.5589 41.5581C8.82698 43.2508 10.301 44.915 12.086 46.4938C13.6933 47.6494 15.1795 48.1499 16.5768 48.1784C17.9862 48.2069 19.3391 47.7674 20.6516 47.0513C20.9141 46.9048 21.217 46.9089 21.4714 47.0269C22.5295 47.5314 23.6118 47.8854 24.7183 47.9993C25.8047 48.1092 26.9233 47.9871 28.0864 47.5477C29.5685 46.9862 31.0991 45.68 32.5085 44.1012C34.4672 41.9121 36.1512 39.2388 37.1729 37.2653C39.3133 33.1393 40.6783 28.3908 40.016 24.216C39.4951 20.9364 37.6939 17.9945 33.9745 15.9884C32.8558 15.3822 31.5918 14.9915 30.1622 14.8532C28.7164 14.7108 27.101 14.8247 25.2877 15.2275C24.5972 15.4635 23.9026 15.6385 23.2039 15.7606C22.5335 15.8623 21.851 15.9233 21.1604 15.9355Z" fill="#4BB1FA"/>
</svg>
