<svg width="61" height="69" viewBox="0 0 61 69" fill="none" xmlns="http://www.w3.org/2000/svg">
<path d="M30.4766 37.7362C32.4096 37.7362 33.9766 36.1767 33.9766 34.2529C33.9766 32.3291 32.4096 30.7695 30.4766 30.7695C28.5436 30.7695 26.9766 32.3291 26.9766 34.2529C26.9766 36.1767 28.5436 37.7362 30.4766 37.7362Z" stroke="#4BB1FA" stroke-width="2" stroke-miterlimit="10"/>
<path d="M37.4766 12.5565C39.4096 12.5565 40.9766 10.997 40.9766 9.07318C40.9766 7.14939 39.4096 5.58984 37.4766 5.58984C35.5436 5.58984 33.9766 7.14939 33.9766 9.07318C33.9766 10.997 35.5436 12.5565 37.4766 12.5565Z" stroke="#4BB1FA" stroke-width="2" stroke-miterlimit="10"/>
<path d="M56.4063 31.0839C58.3392 31.0839 59.9063 29.5243 59.9063 27.6005C59.9063 25.6767 58.3392 24.1172 56.4063 24.1172C54.4733 24.1172 52.9062 25.6767 52.9062 27.6005C52.9062 29.5243 54.4733 31.0839 56.4063 31.0839Z" stroke="#4BB1FA" stroke-width="2" stroke-miterlimit="10"/>
<path d="M11.8594 18.8885C13.7924 18.8885 15.3594 17.329 15.3594 15.4052C15.3594 13.4814 13.7924 11.9219 11.8594 11.9219C9.92638 11.9219 8.35938 13.4814 8.35938 15.4052C8.35938 17.329 9.92638 18.8885 11.8594 18.8885Z" stroke="#4BB1FA" stroke-width="2" stroke-miterlimit="10"/>
<path d="M39.3785 14.775C40.6513 20.3167 41.4467 26.9667 41.4467 34.25C41.4467 52.6167 36.5149 67.5 30.4695 67.5C24.424 67.5 19.4922 52.6167 19.4922 34.25C19.4922 15.8833 24.424 1 30.4695 1C32.0604 1 33.6513 1.95 34.924 3.85" stroke="#4BB1FA" stroke-width="2" stroke-miterlimit="10"/>
<path d="M52.4278 31.7179C48.2914 35.6762 42.5641 39.9512 36.0414 43.7512C20.1323 52.9345 4.70051 56.1012 1.51869 50.8762C-1.50404 45.6512 8.99596 33.9345 24.9051 24.7512C40.8141 15.5679 56.246 12.4012 59.4278 17.6262C60.0642 18.7345 60.0642 20.3179 59.5869 21.9012" stroke="#4BB1FA" stroke-width="2" stroke-miterlimit="10"/>
<path d="M8.35938 31.557C12.4957 35.6737 18.223 39.9487 24.9048 43.7487C40.8139 52.932 56.2457 56.0987 59.4276 50.8737C62.4503 45.6487 51.9503 33.932 36.0412 24.7487C29.6776 21.107 23.473 18.4154 18.0639 16.832" stroke="#4BB1FA" stroke-width="2" stroke-miterlimit="10"/>
<path d="M5.65141 15.25C3.74232 15.5667 2.3105 16.3583 1.67414 17.625C-0.0758613 20.6333 2.62869 25.8583 8.51505 31.5583" stroke="#4BB1FA" stroke-width="2" stroke-miterlimit="10" stroke-dasharray="2 2"/>
</svg>
