<svg width="44" height="50" viewBox="0 0 44 50" fill="none" xmlns="http://www.w3.org/2000/svg">
<path d="M26.7578 29.6875C36.1328 29.6875 43.75 37.3047 43.75 46.6797C43.75 48.5352 42.1875 50 40.332 50H3.32031C1.46484 50 0 48.5352 0 46.6797C0 37.3047 7.51953 29.6875 16.8945 29.6875H26.7578ZM15.625 39.0625C14.7461 39.0625 14.0625 39.8438 14.0625 40.625C14.0625 41.5039 14.7461 42.1875 15.625 42.1875C16.4062 42.1875 17.1875 41.5039 17.1875 40.625C17.1875 39.8438 16.4062 39.0625 15.625 39.0625ZM40.332 46.875C40.4297 46.875 40.625 46.7773 40.625 46.6797C40.625 40.625 36.6211 35.5469 31.25 33.6914V36.2305C33.0078 36.9141 34.375 38.6719 34.375 40.625V43.75C34.375 44.6289 33.5938 45.3125 32.8125 45.3125C31.9336 45.3125 31.25 44.6289 31.25 43.75V40.625C31.25 39.8438 30.4688 39.0625 29.6875 39.0625C28.8086 39.0625 28.125 39.8438 28.125 40.625V43.75C28.125 44.6289 27.3438 45.3125 26.5625 45.3125C25.6836 45.3125 25 44.6289 25 43.75V40.625C25 38.6719 26.2695 36.9141 28.125 36.2305V33.0078C27.6367 32.9102 27.2461 32.8125 26.7578 32.8125H17.1875V36.2305C18.9453 36.9141 20.3125 38.6719 20.3125 40.625C20.3125 43.2617 18.1641 45.3125 15.625 45.3125C12.9883 45.3125 10.9375 43.2617 10.9375 40.625C10.9375 38.6719 12.207 36.9141 14.0625 36.2305V33.2031C7.8125 34.4727 3.125 40.0391 3.125 46.6797C3.125 46.7773 3.22266 46.875 3.32031 46.875H40.332ZM21.875 25C14.9414 25 9.375 19.4336 9.375 12.5C9.375 5.66406 14.9414 0 21.875 0C28.7109 0 34.375 5.66406 34.375 12.5C34.375 19.4336 28.7109 25 21.875 25ZM21.875 3.125C16.6992 3.125 12.5 7.42188 12.5 12.5C12.5 17.6758 16.6992 21.875 21.875 21.875C26.9531 21.875 31.25 17.6758 31.25 12.5C31.25 7.42188 26.9531 3.125 21.875 3.125Z" fill="#4BB1FA"/>
</svg>
