<svg width="70" height="58" viewBox="0 0 70 58" fill="none" xmlns="http://www.w3.org/2000/svg">
<path d="M37.8218 48.7874H50.3031C51.3057 47.7943 52.4051 46.7614 53.5217 45.7115C55.863 43.5038 58.3068 41.1997 60.819 38.3168C63.6901 35.0195 63.9977 33.8788 64.8693 30.6496C65.0345 30.0424 65.2168 29.3614 65.4561 28.5158L66.9486 23.289L66.9657 23.2322C67.7632 20.9054 67.8259 19.3674 67.4954 18.4821C67.3929 18.2097 67.2619 18.0281 67.1081 17.9316C66.9884 17.8522 66.8289 17.8238 66.6637 17.8408C66.2764 17.8806 65.8377 18.1246 65.439 18.5616L61.007 29.0776C60.9671 29.1741 60.9102 29.2649 60.8475 29.3444C60.5855 29.8154 60.2323 30.2751 59.7765 30.7121L51.9095 39.4404C51.4823 39.9172 50.7474 39.9569 50.2746 39.5312C49.7961 39.1056 49.7562 38.3735 50.1834 37.9025L58.0505 29.1684C58.0846 29.1287 58.1188 29.089 58.1587 29.0549C58.9733 28.2831 59.2297 27.4489 59.0872 26.8416C59.0417 26.6543 58.9619 26.4954 58.848 26.3876C58.7397 26.2911 58.5973 26.223 58.4207 26.206C57.7201 26.1322 56.689 26.6487 55.43 28.1299C55.3958 28.1696 55.356 28.2093 55.3161 28.249L52.2684 30.9277L52.2513 30.9447C48.953 34.0547 47.5345 34.7925 44.9482 36.1375C44.4071 36.4213 43.8146 36.7277 43.0798 37.125C42.7892 37.2839 42.5044 37.4768 42.2253 37.6868C41.929 37.9138 41.6442 38.1465 41.3765 38.3735C40.0093 39.5199 39.2915 40.4506 38.8813 41.4778C38.4541 42.5447 38.3003 43.8444 38.0895 45.6263C38.0041 46.3471 37.9414 47.0565 37.8901 47.7659C37.856 48.1121 37.8389 48.4526 37.8218 48.7874ZM34.9222 4.96392C37.2464 2.55198 38.87 0.469205 42.4474 0.0549196C49.158 -0.711225 55.3332 6.13868 51.9437 12.8808C50.9753 14.799 49.0156 17.086 46.8395 19.3277C44.4526 21.7907 41.8151 24.197 39.9637 26.0244L34.9222 31.0072L30.758 27.0119C25.745 22.1993 17.5703 16.1496 17.3026 8.64709C17.1146 3.39191 21.2731 0.0265439 26.064 0.0889705C30.3421 0.140047 32.1366 2.26255 34.9222 4.96392ZM32.1593 48.7874H19.6724C18.6698 47.7943 17.5703 46.7614 16.4538 45.7115C14.1125 43.5038 11.6686 41.1997 9.15641 38.3168C6.28532 35.0195 5.9777 33.8788 5.10612 30.6496C4.94092 30.0424 4.75863 29.3614 4.51937 28.5158L3.02685 23.289L3.00977 23.2322C2.21224 20.9054 2.14958 19.3674 2.47998 18.4821C2.58252 18.2097 2.71354 18.0281 2.86735 17.9316C2.98698 17.8522 3.14648 17.8238 3.31169 17.8408C3.71045 17.8749 4.14909 18.1246 4.54785 18.5559L8.97982 29.0719C9.01969 29.1684 9.07666 29.2592 9.13932 29.3387C9.40137 29.8097 9.75456 30.2694 10.2103 30.7064L18.0716 39.4404C18.4989 39.9172 19.2337 39.9569 19.7065 39.5312C20.1851 39.1056 20.2249 38.3735 19.7977 37.9025L11.9307 29.1627C11.8965 29.123 11.8623 29.0833 11.8224 29.0492C11.0078 28.2774 10.7515 27.4432 10.8939 26.8359C10.9395 26.6487 11.0192 26.4898 11.1331 26.3819C11.2414 26.2854 11.3838 26.2173 11.5604 26.2003C12.2611 26.1265 13.2979 26.643 14.5511 28.1242C14.5853 28.1639 14.6252 28.2036 14.665 28.2434L17.7127 30.922L17.7298 30.9391C21.0282 34.049 22.4466 34.7868 25.0329 36.1318C25.5741 36.4156 26.1665 36.722 26.9014 37.1193C27.1919 37.2782 27.4767 37.4712 27.7559 37.6811C28.0521 37.9081 28.3369 38.1408 28.6047 38.3678C29.9718 39.5142 30.6896 40.4449 31.0998 41.4721C31.527 42.5391 31.6808 43.8387 31.8916 45.6207C31.9771 46.3414 32.0397 47.0508 32.091 47.7602C32.1252 48.1121 32.1423 48.4526 32.1593 48.7874ZM16.7671 49.1847C16.5905 49.389 16.4823 49.6557 16.4823 49.9451V56.8348C16.4823 57.4761 17.0063 57.9925 17.6444 57.9925H33.3556C33.9994 57.9925 34.5177 57.4761 34.5177 56.8348V49.8827C34.5177 49.1449 34.4722 48.3504 34.4209 47.6127C34.3696 46.8579 34.3013 46.1087 34.2158 45.3653C33.988 43.4187 33.8171 41.9943 33.2702 40.6265C32.7062 39.2248 31.8005 38.016 30.12 36.6029C29.8123 36.3418 29.499 36.0808 29.1686 35.8367C28.8211 35.5757 28.4451 35.326 28.0236 35.0933C27.34 34.7244 26.702 34.3896 26.1209 34.0831C23.7284 32.8346 22.4181 32.1535 19.3363 29.2479C19.3135 29.2252 19.285 29.2025 19.2622 29.1854L16.2886 26.5692C14.4714 24.4524 12.694 23.7487 11.3325 23.8962H11.3268C10.6603 23.9643 10.0907 24.2254 9.63493 24.6226L6.63281 17.4946H6.62712C6.58154 17.3925 6.52458 17.296 6.45052 17.2052C5.61881 16.2121 4.56494 15.6332 3.55664 15.531C2.86735 15.4629 2.20085 15.6105 1.61979 15.9851C1.06722 16.3426 0.61149 16.8988 0.32666 17.6649C-0.174642 18.9986 -0.163249 21.07 0.816569 23.9359L2.29769 29.1287C2.51416 29.8778 2.70215 30.5986 2.87874 31.2342C3.84717 34.8379 4.18896 36.1148 7.41895 39.815C9.97673 42.7491 12.4775 45.1099 14.8815 47.3743C15.5024 47.9815 16.1291 48.5774 16.7671 49.1847ZM18.9888 51.1029C19.1426 51.1369 19.3021 51.1369 19.4616 51.1029H32.1878V55.677H18.8065V51.1029H18.9888ZM53.214 49.1847C53.3906 49.389 53.4989 49.6557 53.4989 49.9451V56.8348C53.4989 57.4761 52.9805 57.9925 52.3368 57.9925H36.6312C35.9875 57.9925 35.4691 57.4761 35.4691 56.8348V49.8827C35.4691 49.843 35.4691 49.7976 35.4748 49.7579C35.4919 49.0144 35.5203 48.2937 35.5659 47.6127C35.6172 46.8579 35.6855 46.1087 35.771 45.3653C35.9989 43.4187 36.1698 41.9943 36.7166 40.6265C37.2806 39.2248 38.1864 38.016 39.8669 36.6029C40.1745 36.3418 40.4878 36.0808 40.8182 35.8367C41.1657 35.5757 41.5417 35.326 41.9632 35.0933C42.6468 34.7244 43.2848 34.3896 43.8659 34.0831C46.2585 32.8346 47.5687 32.1535 50.6506 29.2479C50.6733 29.2252 50.7018 29.2025 50.7246 29.1854L53.6982 26.5692C55.5155 24.4524 57.2928 23.7487 58.6543 23.8962H58.66C59.3265 23.9643 59.8962 24.2254 60.3519 24.6226L63.354 17.4946H63.3597C63.4053 17.3925 63.4622 17.296 63.5363 17.2052C64.368 16.2121 65.4219 15.6332 66.4302 15.531C67.1195 15.4629 67.786 15.6105 68.367 15.9851C68.9196 16.3426 69.3753 16.8988 69.6602 17.6649C70.1615 18.9986 70.1501 21.07 69.1702 23.9359L67.6891 29.1287C67.4727 29.8778 67.2847 30.5986 67.1081 31.2342C66.1397 34.8379 65.7979 36.1148 62.5679 39.815C60.0101 42.7491 57.5093 45.1099 55.1053 47.3743C54.4787 47.9815 53.8521 48.5774 53.214 49.1847ZM50.9923 51.1029C50.8385 51.1369 50.679 51.1369 50.5195 51.1029H37.7933V55.677H51.1746V51.1029H50.9923Z" fill="#4BB1FA"/>
</svg>
