<svg width="31" height="24" viewBox="0 0 31 24" fill="none" xmlns="http://www.w3.org/2000/svg">
<path d="M25.5469 16.5C25.9219 16.5 26.2969 16.875 26.2969 17.25C26.2969 17.6719 25.9219 18 25.5469 18H22.9688C22.7344 18 22.5469 17.8125 22.5469 17.5781V14.25C22.5469 13.875 22.875 13.5 23.2969 13.5C23.6719 13.5 24.0469 13.875 24.0469 14.25V16.5H25.5469ZM23.2969 10.5C27 10.5 30.0469 13.5469 30.0469 17.25C30.0469 21 27 24 23.2969 24C19.5469 24 16.5469 21 16.5469 17.25C16.5469 13.5469 19.5469 10.5 23.2969 10.5ZM23.2969 22.5C26.1562 22.5 28.5469 20.1562 28.5469 17.25C28.5469 14.3906 26.1562 12 23.2969 12C20.3906 12 18.0469 14.3906 18.0469 17.25C18.0469 20.1562 20.3906 22.5 23.2969 22.5ZM15.7969 22.5C16.1719 22.5 16.5469 22.875 16.5469 23.25V23.2969C16.5469 23.6719 16.1719 24 15.7969 24H1.64062C0.75 24 0.046875 23.2969 0.046875 22.4062C0 17.9062 3.65625 14.25 8.15625 14.25H12.8906C13.5 14.25 14.1094 14.3438 14.6719 14.4844C15.0938 14.5781 15.3281 14.9531 15.2344 15.375C15.1406 15.7969 14.7656 16.0312 14.3438 15.9375C13.875 15.8438 13.4062 15.75 12.8906 15.75H8.15625C4.5 15.75 1.5 18.75 1.54688 22.4062C1.54688 22.4531 1.59375 22.5 1.64062 22.5H15.7969ZM10.5469 12C7.21875 12 4.54688 9.32812 4.54688 6C4.54688 2.71875 7.21875 0 10.5469 0C13.8281 0 16.5469 2.71875 16.5469 6C16.5469 9.32812 13.8281 12 10.5469 12ZM10.5469 1.5C8.0625 1.5 6.04688 3.5625 6.04688 6C6.04688 8.48438 8.0625 10.5 10.5469 10.5C12.9844 10.5 15.0469 8.48438 15.0469 6C15.0469 3.5625 12.9844 1.5 10.5469 1.5Z" fill="white"/>
</svg>
