<svg width="29" height="31" viewBox="0 0 29 31" fill="none" xmlns="http://www.w3.org/2000/svg">
<path fill-rule="evenodd" clip-rule="evenodd" d="M14.5 30.0312C22.5081 30.0312 29 23.5394 29 15.5312C29 7.52311 22.5081 1.03125 14.5 1.03125C6.49187 1.03125 0 7.52311 0 15.5312C0 18.1318 0.684607 20.5725 1.88342 22.6828L0 30.0312L7.57611 28.2745C9.63359 29.3947 11.9924 30.0312 14.5 30.0312ZM14.5 27.8005C21.2762 27.8005 26.7693 22.3074 26.7693 15.5312C26.7693 8.75519 21.2762 3.26202 14.5 3.26202C7.72389 3.26202 2.23077 8.75519 2.23077 15.5312C2.23077 18.1476 3.04966 20.5726 4.44512 22.5639L3.34615 26.685L7.53993 25.6366C9.51759 27.0014 11.9155 27.8005 14.5 27.8005Z" fill="#BFC8D0"/>
<path d="M26.9314 14.5067C26.9314 21.3708 21.3669 26.9352 14.5028 26.9352C11.8847 26.9352 9.45565 26.1257 7.45233 24.7434L3.20409 25.8054L4.31733 21.6307C2.90374 19.6135 2.07422 17.157 2.07422 14.5067C2.07422 7.64258 7.63868 2.07812 14.5028 2.07812C21.3669 2.07812 26.9314 7.64258 26.9314 14.5067Z" fill="url(#paint0_linear_2_2516)"/>
<path fill-rule="evenodd" clip-rule="evenodd" d="M14.5 29C22.5081 29 29 22.5081 29 14.5C29 6.49186 22.5081 0 14.5 0C6.49187 0 0 6.49186 0 14.5C0 17.1006 0.684607 19.5412 1.88342 21.6516L0 29L7.57611 27.2432C9.63359 28.3634 11.9924 29 14.5 29ZM14.5 26.7693C21.2762 26.7693 26.7693 21.2761 26.7693 14.5C26.7693 7.72389 21.2762 2.23077 14.5 2.23077C7.72389 2.23077 2.23077 7.72389 2.23077 14.5C2.23077 17.1163 3.04966 19.5413 4.44512 21.5327L3.34615 25.6538L7.53993 24.6053C9.51759 25.9701 11.9155 26.7693 14.5 26.7693Z" fill="white"/>
<path d="M10.875 7.77317C10.5303 7.08071 10.0014 7.14201 9.46715 7.14201C8.51233 7.14201 7.02344 8.28573 7.02344 10.4143C7.02344 12.1588 7.79214 14.0683 10.3824 16.9249C12.8822 19.6818 16.1669 21.1079 18.8937 21.0593C21.6205 21.0108 22.1816 18.6642 22.1816 17.8718C22.1816 17.5206 21.9636 17.3453 21.8135 17.2977C20.8842 16.8517 19.1703 16.0208 18.7804 15.8647C18.3905 15.7086 18.1868 15.9198 18.0603 16.0346C17.7067 16.3716 17.0057 17.3648 16.7656 17.5882C16.5257 17.8116 16.1678 17.6985 16.0189 17.6141C15.4709 17.3942 13.9851 16.7333 12.8009 15.5853C11.3362 14.1655 11.2502 13.677 10.9743 13.2422C10.7536 12.8943 10.9156 12.6809 10.9964 12.5876C11.312 12.2235 11.7477 11.6613 11.9431 11.382C12.1385 11.1026 11.9834 10.6785 11.8903 10.4143C11.49 9.27817 11.1508 8.32708 10.875 7.77317Z" fill="white"/>
<defs>
<linearGradient id="paint0_linear_2_2516" x1="25.3778" y1="5.18526" x2="2.07424" y2="26.9353" gradientUnits="userSpaceOnUse">
<stop stop-color="#5BD066"/>
<stop offset="1" stop-color="#27B43E"/>
</linearGradient>
</defs>
</svg>
