<svg width="40" height="29" viewBox="0 0 40 29" fill="none" xmlns="http://www.w3.org/2000/svg">
<g clip-path="url(#clip0_2_7939)">
<path d="M36.3633 28.2909V29.0909H3.63672V28.2909H36.3633ZM39.2 25.4549V3.63675C39.2 2.07025 37.9298 0.800007 36.3633 0.800007H3.63672C2.07023 0.800007 0.8 2.07025 0.8 3.63675V25.4549C0.800101 27.0214 2.07029 28.2909 3.63672 28.2909V29.0909L3.44922 29.0862C1.58979 28.9919 0.098828 27.5012 0.0046875 25.6416L0 25.4549V3.63675C0 1.69119 1.52788 0.102088 3.44922 0.00468754L3.63672 0H36.3633C38.3717 0 40 1.62842 40 3.63675V25.4549L39.9953 25.6416C39.898 27.5632 38.309 29.0909 36.3633 29.0909V28.2909C37.9298 28.2909 39.1999 27.0214 39.2 25.4549Z" fill="black"/>
<path d="M40 5.46094H0V12.7337H40V5.46094Z" fill="black"/>
<path d="M33.6371 20H28.1824C27.6804 20 27.2734 20.407 27.2734 20.9091V22.7273C27.2734 23.2294 27.6804 23.6364 28.1824 23.6364H33.6371C34.1391 23.6364 34.5462 23.2294 34.5462 22.7273V20.9091C34.5462 20.407 34.1391 20 33.6371 20Z" fill="#111111"/>
<path fill-rule="evenodd" clip-rule="evenodd" d="M10.0121 24.2057C9.84145 24.3992 9.65239 24.5725 9.44487 24.7257C9.23736 24.879 9.01605 25.0087 8.78095 25.1149C8.54583 25.221 8.30219 25.3011 8.05 25.3555C7.79782 25.4097 7.54275 25.4369 7.2848 25.4369C7.16571 25.4369 7.0469 25.431 6.92839 25.4194C6.80986 25.4076 6.6922 25.3902 6.57539 25.367C6.45858 25.3437 6.34319 25.3149 6.22921 25.2802C6.11525 25.2457 6.00325 25.2056 5.89321 25.1601C5.78319 25.1145 5.67566 25.0636 5.57064 25.0075C5.4656 24.9514 5.36356 24.8902 5.26455 24.824C5.16553 24.7579 5.06998 24.687 4.97791 24.6115C4.88585 24.5359 4.79771 24.456 4.7135 24.3717C4.62929 24.2876 4.54941 24.1995 4.47385 24.1074C4.3983 24.0154 4.32744 23.9197 4.26128 23.8207C4.19511 23.7217 4.13395 23.6197 4.07781 23.5146C4.02168 23.4096 3.97081 23.3021 3.92524 23.1921C3.87966 23.082 3.83959 22.97 3.80501 22.8561C3.77045 22.7421 3.74154 22.6267 3.71831 22.5098C3.69508 22.3931 3.67763 22.2755 3.66595 22.1568C3.65428 22.0383 3.64844 21.9196 3.64844 21.8005C3.64844 21.6813 3.65428 21.5626 3.66595 21.4441C3.67763 21.3255 3.69508 21.2078 3.71831 21.0911C3.74154 20.9742 3.77045 20.8588 3.80501 20.7448C3.83959 20.631 3.87966 20.519 3.92524 20.4088C3.97081 20.2988 4.02168 20.1913 4.07781 20.0863C4.13395 19.9812 4.19511 19.8792 4.26128 19.7802C4.32744 19.6812 4.3983 19.5856 4.47385 19.4936C4.54941 19.4014 4.62929 19.3133 4.7135 19.2292C4.79771 19.1449 4.88585 19.0651 4.97791 18.9894C5.06998 18.9139 5.16553 18.8431 5.26455 18.7769C5.36356 18.7107 5.4656 18.6496 5.57064 18.5934C5.67566 18.5373 5.78319 18.4864 5.89321 18.4409C6.00325 18.3953 6.11525 18.3552 6.22921 18.3207C6.34319 18.2861 6.45858 18.2572 6.57539 18.2339C6.6922 18.2107 6.80986 18.1933 6.92839 18.1816C7.0469 18.1699 7.16571 18.1641 7.2848 18.1641C7.54275 18.1641 7.79782 18.1912 8.05 18.2454C8.30219 18.2998 8.54583 18.3799 8.78095 18.4861C9.01605 18.5923 9.23736 18.7219 9.44487 18.8752C9.65239 19.0284 9.84145 19.2017 10.0121 19.3952C10.1827 19.2017 10.3718 19.0284 10.5793 18.8752C10.7868 18.7219 11.0081 18.5923 11.2432 18.4861C11.4783 18.3799 11.722 18.2998 11.9742 18.2454C12.2263 18.1912 12.4814 18.1641 12.7393 18.1641C12.8585 18.1641 12.9772 18.1699 13.0957 18.1816C13.2143 18.1933 13.332 18.2107 13.4487 18.2339C13.5656 18.2572 13.681 18.2861 13.795 18.3207C13.9088 18.3552 14.0208 18.3953 14.131 18.4409C14.241 18.4864 14.3485 18.5373 14.4535 18.5934C14.5586 18.6496 14.6606 18.7107 14.7596 18.7769C14.8586 18.8431 14.9542 18.9139 15.0462 18.9894C15.1383 19.0651 15.2265 19.1449 15.3106 19.2292C15.3948 19.3133 15.4747 19.4014 15.5503 19.4936C15.6258 19.5856 15.6967 19.6812 15.7628 19.7802C15.8291 19.8792 15.8902 19.9812 15.9463 20.0863C16.0025 20.1913 16.0533 20.2988 16.099 20.4088C16.1445 20.519 16.1846 20.631 16.2191 20.7448C16.2537 20.8588 16.2826 20.9742 16.3058 21.0911C16.3291 21.2078 16.3466 21.3255 16.3582 21.4441C16.3698 21.5626 16.3757 21.6813 16.3757 21.8005C16.3757 21.9196 16.3698 22.0383 16.3582 22.1568C16.3466 22.2755 16.3291 22.3931 16.3058 22.5098C16.2826 22.6267 16.2537 22.7421 16.2191 22.8561C16.1846 22.97 16.1445 23.082 16.099 23.1921C16.0533 23.3021 16.0025 23.4096 15.9463 23.5146C15.8902 23.6197 15.8291 23.7217 15.7628 23.8207C15.6967 23.9197 15.6258 24.0154 15.5503 24.1074C15.4747 24.1995 15.3948 24.2876 15.3106 24.3717C15.2265 24.456 15.1383 24.5359 15.0462 24.6115C14.9542 24.687 14.8586 24.7579 14.7596 24.824C14.6606 24.8902 14.5586 24.9514 14.4535 25.0075C14.3485 25.0636 14.241 25.1145 14.131 25.1601C14.0208 25.2056 13.9088 25.2457 13.795 25.2802C13.681 25.3149 13.5656 25.3437 13.4487 25.367C13.332 25.3902 13.2143 25.4076 13.0957 25.4194C12.9772 25.431 12.8585 25.4369 12.7393 25.4369C12.4814 25.4369 12.2263 25.4097 11.9742 25.3555C11.722 25.3011 11.4783 25.221 11.2432 25.1149C11.0081 25.0087 10.7868 24.879 10.5793 24.7257C10.3718 24.5725 10.1827 24.3992 10.0121 24.2057Z" fill="#111111"/>
</g>
<defs>
<clipPath id="clip0_2_7939">
<rect width="40" height="29" fill="white"/>
</clipPath>
</defs>
</svg>
