<svg width="36" height="36" viewBox="0 0 36 36" fill="none" xmlns="http://www.w3.org/2000/svg">
<path d="M19.6875 31.5H21.9375C22.5591 31.5 23.0625 30.9966 23.0625 30.375C23.0625 29.7534 22.5591 29.25 21.9375 29.25H19.6875C19.0659 29.25 18.5625 29.7534 18.5625 30.375C18.5625 30.9966 19.0659 31.5 19.6875 31.5Z" fill="#111111"/>
<path d="M29.25 3.375H25.3125V1.125C25.3125 0.503437 24.8091 0 24.1875 0H11.8125C11.1909 0 10.6875 0.503437 10.6875 1.125V3.375H6.75C5.19694 3.375 3.9375 4.63444 3.9375 6.1875V10.6875C3.9375 11.3091 4.44094 11.8125 5.0625 11.8125C5.68406 11.8125 6.1875 11.3091 6.1875 10.6875V6.1875C6.1875 5.877 6.4395 5.625 6.75 5.625H10.6875V7.875C10.6875 8.49656 11.1909 9 11.8125 9H24.1875C24.8091 9 25.3125 8.49656 25.3125 7.875V5.625H29.25C29.5605 5.625 29.8125 5.877 29.8125 6.1875V33.1875C29.8125 33.498 29.5605 33.75 29.25 33.75H18.5625V24.1875C18.5625 22.6344 17.3031 21.375 15.75 21.375H6.1875V15.1875C6.1875 14.5659 5.68406 14.0625 5.0625 14.0625C4.44094 14.0625 3.9375 14.5659 3.9375 15.1875V22.5C3.94312 22.797 4.06181 23.0805 4.26938 23.2931L16.6444 35.6681C16.8542 35.8796 17.1394 35.9989 17.4375 36H29.25C30.8031 36 32.0625 34.7406 32.0625 33.1875V6.1875C32.0625 4.63444 30.8031 3.375 29.25 3.375ZM23.0625 6.75H12.9375V2.25H23.0625V6.75ZM15.75 23.625C16.0605 23.625 16.3125 23.877 16.3125 24.1875V32.1581L7.77937 23.625H15.75Z" fill="#111111"/>
<path d="M18 11.25C17.3784 11.25 16.875 11.7534 16.875 12.375V14.0625H15.1875C14.5659 14.0625 14.0625 14.5659 14.0625 15.1875C14.0625 15.8091 14.5659 16.3125 15.1875 16.3125H16.875V18C16.875 18.6216 17.3784 19.125 18 19.125C18.6216 19.125 19.125 18.6216 19.125 18V16.3125H20.8125C21.4341 16.3125 21.9375 15.8091 21.9375 15.1875C21.9375 14.5659 21.4341 14.0625 20.8125 14.0625H19.125V12.375C19.125 11.7534 18.6216 11.25 18 11.25Z" fill="#111111"/>
<path d="M26.4375 31.5C27.0588 31.5 27.5625 30.9963 27.5625 30.375C27.5625 29.7537 27.0588 29.25 26.4375 29.25C25.8162 29.25 25.3125 29.7537 25.3125 30.375C25.3125 30.9963 25.8162 31.5 26.4375 31.5Z" fill="#111111"/>
</svg>
