<svg width="36" height="36" viewBox="0 0 36 36" fill="none" xmlns="http://www.w3.org/2000/svg">
<path d="M17.4068 26.0555V25.1959C16.7786 25.1523 16.1371 25.0682 15.4831 24.9436C14.8291 24.8189 14.2423 24.5947 13.723 24.2705C13.2099 23.9404 12.9536 23.5012 12.9536 22.9528C12.9536 22.5416 13.088 22.1709 13.3575 21.8408C13.6331 21.5108 13.9698 21.3455 14.3675 21.3455C14.5406 21.3455 14.8515 21.4389 15.3005 21.6258C15.7492 21.8128 16.1147 21.953 16.3968 22.0463C16.6856 22.1399 17.0223 22.1868 17.4068 22.1868V19.1866C16.5861 18.9436 15.8968 18.6913 15.3389 18.4298C14.7809 18.1617 14.3288 17.8689 13.9827 17.5513C13.6365 17.2271 13.3863 16.8782 13.2323 16.5046C13.085 16.1307 13.0113 15.7162 13.0113 15.2614C13.0113 14.626 13.1267 14.0466 13.3575 13.5232C13.5883 12.9936 13.9026 12.5389 14.3 12.1587C14.7039 11.7725 15.1753 11.4642 15.7139 11.2335C16.2525 11.003 16.8169 10.8659 17.4068 10.8223V9.9158C17.4068 9.53575 17.6023 9.3457 17.9936 9.3457C18.391 9.3457 18.5899 9.53575 18.5899 9.9158V10.8223C19.0708 10.8348 19.5806 10.9064 20.1192 11.0373C20.6643 11.1619 21.1259 11.3738 21.5043 11.6729C21.8827 11.9717 22.0718 12.3707 22.0718 12.869C22.0718 13.112 22.0141 13.3488 21.8987 13.5793C21.7897 13.8035 21.6326 13.9842 21.4273 14.1214C21.2287 14.2583 21.004 14.3269 20.7542 14.3269C20.6002 14.3269 20.4142 14.28 20.1963 14.1867C19.9845 14.0934 19.7924 14.003 19.619 13.9157C19.4459 13.8223 19.2762 13.7475 19.1092 13.6914C18.9426 13.6291 18.7695 13.5981 18.5899 13.5981V16.3361C19.9302 16.6913 21.004 17.1928 21.8121 17.8408C22.6267 18.4888 23.0336 19.4204 23.0336 20.6352C23.0336 21.3581 22.8958 22.0028 22.6202 22.5696C22.3508 23.1305 21.9951 23.6008 21.5525 23.981C21.1164 24.3546 20.6388 24.6415 20.1192 24.8407C19.6 25.0402 19.0902 25.1586 18.5899 25.1959V26.0555C18.5899 26.4358 18.391 26.6257 17.9936 26.6257C17.6023 26.6257 17.4068 26.4358 17.4068 26.0555ZM17.4068 15.9905V13.5981C17.0861 13.6664 16.8234 13.8128 16.618 14.0373C16.4195 14.2553 16.3201 14.5356 16.3201 14.8782C16.3201 15.1648 16.4195 15.4016 16.618 15.5885C16.8234 15.7755 17.0861 15.9094 17.4068 15.9905ZM18.5899 19.4857V22.1868C18.9042 22.1868 19.1703 22.0526 19.3882 21.7848C19.6129 21.5167 19.7249 21.2117 19.7249 20.8687C19.7249 20.4763 19.6288 20.1772 19.4364 19.9718C19.2504 19.7597 18.9684 19.5978 18.5899 19.4857Z" fill="#111111"/>
<circle cx="18" cy="18" r="17" stroke="#111111" stroke-width="2"/>
</svg>
