<svg width="30" height="38" viewBox="0 0 30 38" fill="none" xmlns="http://www.w3.org/2000/svg">
<path d="M14.5159 0.760845L1.14659 6.34411C1.01519 6.39976 0.90307 6.49286 0.824212 6.61179C0.745354 6.73073 0.703242 6.87024 0.703126 7.01294V18.8701C0.702182 21.7546 1.45167 24.5896 2.87794 27.0968C4.30422 29.6039 6.35822 31.6968 8.83812 33.17L14.7776 36.7031L20.6371 33.1845C23.0962 31.7051 25.1309 29.6149 26.5436 27.1169C27.9563 24.6189 28.6989 21.7981 28.6994 18.9283V6.34411C28.6999 6.19557 28.6549 6.05045 28.5704 5.92827C28.4859 5.8061 28.366 5.71273 28.2269 5.66074L15.0466 0.746305C14.8742 0.684076 14.6846 0.689269 14.5159 0.760845Z" stroke="#111111" stroke-width="1.40625"/>
<path d="M10.0312 18.5312L13.1966 21.6952L19.5246 15.3672" stroke="#111111" stroke-width="1.5" stroke-linecap="round" stroke-linejoin="round"/>
</svg>
